<?xml version="1.0" encoding="UTF-8"?>
<svg id="a" xmlns="http://www.w3.org/2000/svg" width="734.05" height="734.05" xmlns:xlink="http://www.w3.org/1999/xlink" viewBox="0 0 734.05 734.05">
  <defs>
    <clipPath id="b">
      <circle cx="367.02" cy="367.02" r="360.39" fill="none"/>
    </clipPath>
  </defs>
  <circle cx="367.02" cy="367.02" r="360.39" fill="#e23a52"/>
  <g clip-path="url(#b)">
    <path d="M107.5,626.55l96.82-96.82M626.55,107.5l-98.5,98.5M107.5,107.5l99.82,99.82m419.23,419.23l-99.82-99.82M367.02,0V141.16m0,451.72v141.16M0,367.02H141.16m592.88,0h-141.16m-225.86-225.86c-124.74,0-225.86,101.12-225.86,225.86s101.12,225.86,225.86,225.86,225.86-101.12,225.86-225.86-101.12-225.86-225.86-225.86Z" fill="none" stroke="#faf2e3" stroke-miterlimit="10" stroke-width="24"/>
  </g>
  <g>
    <!-- Bitcoin logo (enlarged, moved down slightly, and shifted left) -->
    <path d="M443.94,339.56c3.82-25.27-15.42-38.87-41.75-47.94l8.54-34.18-20.82-5.2-8.3,33.28c-5.48-1.37-11.14-2.68-16.72-3.96l8.36-33.53-20.8-5.2-8.54,34.18c-4.54-1.03-9-2.06-13.33-3.14l0.02-0.12-28.72-7.15-5.54,22.18s15.42,3.53,15.1,3.76c8.42,2.1,9.94,7.69,9.7,12.11l-9.7,38.93c0.58,0.14,1.32,0.36,2.16,0.67-0.7-0.17-1.43-0.36-2.18-0.53l-13.6,54.46c-1.03,2.57-3.65,6.4-9.55,4.94,0.2,0.25-15.11-3.77-15.11-3.77l-10.31,23.76,27.08,6.76c5.04,1.27,9.98,2.58,14.83,3.82l-8.63,34.58,20.8,5.2,8.54-34.2c5.7,1.43,11.23,2.75,16.63,4.01l-8.5,34.01,20.82,5.2,8.63-34.56c35.59,6.74,62.36,4.02,73.63-28.18,9.07-25.86-0.44-40.78-19.15-50.5,13.63-3.14,23.9-12.1,26.64-30.59Zm-47.65,66.74c-6.43,25.86-50.02,11.88-64.14,8.38l11.45-45.84c14.12,3.53,59.4,10.5,52.69,37.46Zm6.46-67.15c-5.88,23.53-42.12,11.59-53.88,8.65l10.37-41.59c11.76,2.94,49.62,8.41,43.51,32.94Z" fill="#faf2e3"/>
  </g>
</svg>
