<?xml version="1.0" encoding="UTF-8"?><svg id="a" xmlns="http://www.w3.org/2000/svg" width="734.05" height="734.05" xmlns:xlink="http://www.w3.org/1999/xlink" viewBox="0 0 734.05 734.05"><defs><clipPath id="b"><circle cx="367.02" cy="367.02" r="360.39" fill="none"/></clipPath></defs><circle cx="367.02" cy="367.02" r="360.39" fill="#e23a52"/><g clip-path="url(#b)"><path d="M107.5,626.55l96.82-96.82M626.55,107.5l-98.5,98.5M107.5,107.5l99.82,99.82m419.23,419.23l-99.82-99.82M367.02,0V141.16m0,451.72v141.16M0,367.02H141.16m592.88,0h-141.16m-225.86-225.86c-124.74,0-225.86,101.12-225.86,225.86s101.12,225.86,225.86,225.86,225.86-101.12,225.86-225.86-101.12-225.86-225.86-225.86Z" fill="none" stroke="#faf2e3" stroke-miterlimit="10" stroke-width="24"/></g><g><path d="M366.99,197.64l-2.27,7.72v224l2.27,2.27,103.98-61.46-103.98-172.53Z" fill="#faf2e3"/><path d="M366.99,197.64l-103.98,172.53,103.98,61.46V197.64Z" fill="#faf2e3"/><path d="M366.99,451.32l-1.28,1.56v79.79l1.28,3.74,104.04-146.52-104.04,61.43Z" fill="#faf2e3"/><path d="M366.99,536.41v-85.09l-103.98-61.43,103.98,146.52Z" fill="#faf2e3"/><path d="M366.99,431.63l103.98-61.46-103.98-47.26v108.72Z" fill="#faf2e3"/><path d="M263.01,370.16l103.98,61.46v-108.72l-103.98,47.26Z" fill="#faf2e3"/></g></svg>