<?xml version="1.0" encoding="UTF-8"?><svg id="a" xmlns="http://www.w3.org/2000/svg" width="734.05" height="755.33" xmlns:xlink="http://www.w3.org/1999/xlink" viewBox="0 0 734.05 755.33"><defs><clipPath id="b"><circle cx="367.02" cy="371.39" r="360.39" fill="none"/></clipPath></defs><circle cx="367.02" cy="371.39" r="360.39" fill="#e23a52"/><g clip-path="url(#b)"><path d="M85.33,642.08l116.74-116.74M621.85,105.56l-100.55,100.55M112.19,105.56l100.62,100.62m446.8,446.8l-128.83-128.83M367.02,0V142.22m0,454.69v158.42M2.48,360.39H141.16m592.88,0h-141.16m-225.86-215.19c-124.74,0-225.86,101.12-225.86,225.86s101.12,225.86,225.86,225.86,225.86-101.12,225.86-225.86-101.12-225.86-225.86-225.86Z" fill="none" stroke="#faf2e3" stroke-miterlimit="10" stroke-width="24"/></g><path d="M353.77,541.38c-1.67-1.67-2.5-3.78-2.5-6.34v-26.88c-17.92-1.54-33.41-5.69-46.47-12.48-13.06-6.78-22.98-15.23-29.76-25.35-6.79-10.11-10.44-20.93-10.95-32.45,0-2.05,.83-3.9,2.5-5.57,1.66-1.66,3.65-2.5,5.95-2.5h19.97c4.61,0,7.81,2.56,9.6,7.68,2.56,10.75,9.22,19.97,19.97,27.65,10.75,7.68,25.98,11.52,45.7,11.52,21.25,0,37.25-3.77,48.01-11.33,10.75-7.55,16.13-18.11,16.13-31.68,0-8.7-2.63-15.75-7.87-21.12-5.25-5.38-13-10.11-23.23-14.21-10.24-4.09-25.61-9.22-46.09-15.36-19.97-5.63-35.85-11.65-47.62-18.05-11.78-6.4-20.61-14.34-26.5-23.81-5.89-9.47-8.83-21.37-8.83-35.72,0-18.94,7.04-35.01,21.12-48.2,14.08-13.18,33.54-21.06,58.38-23.62v-26.5c0-2.56,.83-4.67,2.5-6.34,1.66-1.66,3.77-2.5,6.34-2.5h14.59c2.56,0,4.67,.83,6.34,2.5,1.66,1.67,2.5,3.78,2.5,6.34v26.88c16.38,2.05,30.4,6.66,42.05,13.83,11.65,7.17,20.48,15.62,26.5,25.35,6.01,9.73,9.28,19.46,9.79,29.19,0,2.05-.71,3.84-2.11,5.38-1.41,1.54-3.4,2.3-5.95,2.3h-20.35c-5.38,0-8.71-2.43-9.99-7.3-1.54-10.75-7.56-19.65-18.05-26.69-10.5-7.04-23.69-10.56-39.56-10.56-17.41,0-31.11,3.33-41.09,9.99-9.99,6.66-14.98,16.51-14.98,29.57,0,8.71,2.36,15.88,7.1,21.51,4.73,5.63,11.97,10.56,21.7,14.79,9.73,4.22,23.94,9.03,42.63,14.4,21.76,5.89,38.92,11.97,51.46,18.24,12.54,6.28,21.89,14.08,28.04,23.43,6.14,9.35,9.22,21.19,9.22,35.52,0,21.76-7.68,39.24-23.04,52.42-15.36,13.19-36.48,20.93-63.37,23.23v26.5c0,2.56-.83,4.67-2.5,6.34-1.67,1.66-3.78,2.5-6.34,2.5h-14.59c-2.56,0-4.67-.83-6.34-2.5Z" fill="#faf2e3"/></svg>